<svg width="24" height="21" viewBox="0 0 24 21" fill="none" xmlns="http://www.w3.org/2000/svg">
<path d="M13.6012 7.76029C13.6012 7.76029 14.2056 7.39316 15.6628 7.74897C17.12 8.10477 17.8542 9.31343 19.3114 9.66924C20.7686 10.025 21.3729 9.65791 21.3729 9.65791L22.7961 3.82915C22.7961 3.82915 22.1918 4.19628 20.7346 3.84048C19.2774 3.48467 18.5432 2.27601 17.086 1.92021C15.6288 1.5644 15.0245 1.93153 15.0245 1.93153L13.6012 7.76029Z" stroke="#797979" stroke-width="1.33333" stroke-linecap="round" stroke-linejoin="round"/>
<path d="M10.8433 17.252L13.6016 7.76025" stroke="#797979" stroke-width="1.33333" stroke-linecap="round" stroke-linejoin="round"/>
<path d="M10.494 7.76029C10.494 7.76029 9.88963 7.39316 8.43244 7.74897C6.97525 8.10477 6.241 9.31343 4.7838 9.66924C3.32661 10.025 2.72228 9.65791 2.72228 9.65791L1.29907 3.82915C1.29907 3.82915 1.9034 4.19628 3.36059 3.84048C4.81778 3.48467 5.55204 2.27601 7.00923 1.92021C8.46642 1.5644 9.07075 1.93153 9.07075 1.93153L10.494 7.76029Z" stroke="#797979" stroke-width="1.33333" stroke-linecap="round" stroke-linejoin="round"/>
<path d="M13.252 17.252L10.4937 7.76025" stroke="#797979" stroke-width="1.33333" stroke-linecap="round" stroke-linejoin="round"/>
</svg>
