<svg width="16" height="17" viewBox="0 0 16 17" fill="none" xmlns="http://www.w3.org/2000/svg">
<path d="M3.23316 15.1667C2.92177 15.1667 2.66699 14.9119 2.66699 14.6005V3.41865C2.66699 3.10725 2.92177 2.85248 3.23316 2.85248C3.54456 2.85248 3.79933 3.10725 3.79933 3.41865V14.6005C3.77102 14.9119 3.54456 15.1667 3.23316 15.1667Z" fill="#EA384C"/>
<path d="M5.3563 11.1185C4.42212 11.1185 3.62948 10.8071 2.86515 10.1277C2.75192 10.0145 2.66699 9.87293 2.66699 9.70308V3.27705C2.66699 3.05058 2.80853 2.85242 3.00669 2.76749C3.20485 2.68257 3.43132 2.71088 3.60117 2.85242C4.16734 3.33366 4.70521 3.56013 5.3563 3.56013C6.20556 3.56013 7.11143 3.16381 8.04561 2.73919C9.06472 2.28625 10.0838 1.83331 11.1879 1.83331C12.122 1.83331 12.9147 2.14471 13.679 2.82411C13.7922 2.93735 13.8772 3.07889 13.8772 3.24874V9.67477C13.8772 9.90124 13.7356 10.0994 13.5375 10.1843C13.3393 10.2693 13.1128 10.2409 12.943 10.0994C12.3768 9.61816 11.839 9.39169 11.1879 9.39169C10.3386 9.39169 9.43273 9.78801 8.49855 10.2126C7.47944 10.6373 6.43203 11.0902 5.3563 11.1185Z" fill="#EA384C"/>
</svg>
