<svg width="100" height="100" viewBox="0 0 100 100" fill="none" xmlns="http://www.w3.org/2000/svg">
<g clip-path="url(#clip0_289_15902)">
<path d="M83.1289 83.1406C101.432 64.8376 101.432 35.1624 83.1289 16.8594C64.8258 -1.44369 35.1507 -1.44369 16.8477 16.8594C-1.4554 35.1624 -1.4554 64.8376 16.8477 83.1406C35.1507 101.444 64.8258 101.444 83.1289 83.1406Z" fill="#F9586A"/>
<path fill-rule="evenodd" clip-rule="evenodd" d="M96.2 57.9518C92.8647 77.4674 77.4668 92.8645 57.9518 96.2L32.7172 70.9654C26.6787 65.982 22.8301 58.4404 22.8301 49.9998C22.8301 34.9941 34.9941 22.8301 49.9998 22.8301C58.4404 22.8301 65.982 26.6789 70.9654 32.7172L96.2 57.9518Z" fill="#E72A3F"/>
<path fill-rule="evenodd" clip-rule="evenodd" d="M37.2822 51.6131L45.0201 58.7189C46.1488 59.758 47.8959 59.7027 48.9574 58.6082L62.7619 45.3912C63.8848 44.3115 63.9188 42.5252 62.8387 41.4018C61.7586 40.2801 59.9732 40.2449 58.8504 41.3246L46.893 52.7732L41.1049 47.4582C39.9582 46.4031 38.1717 46.4771 37.116 47.625C36.0605 48.7717 36.135 50.557 37.2822 51.6131ZM49.9998 22.8301C65.0055 22.8301 77.1695 34.9941 77.1695 49.9998C77.1695 65.0055 65.0055 77.1695 49.9998 77.1695C34.9941 77.1695 22.8301 65.0055 22.8301 49.9998C22.8301 34.9941 34.9941 22.8301 49.9998 22.8301Z" fill="white"/>
</g>
<defs>
<clipPath id="clip0_289_15902">
<rect width="100" height="100" fill="white"/>
</clipPath>
</defs>
</svg>
