<svg width="100" height="100" viewBox="0 0 100 100" fill="none" xmlns="http://www.w3.org/2000/svg">
<g clip-path="url(#clip0_289_17176)">
<path d="M83.1289 83.1406C101.432 64.8376 101.432 35.1624 83.1289 16.8594C64.8258 -1.44369 35.1507 -1.44369 16.8477 16.8594C-1.4554 35.1624 -1.4554 64.8376 16.8477 83.1406C35.1507 101.444 64.8258 101.444 83.1289 83.1406Z" fill="#34CE6D"/>
<path fill-rule="evenodd" clip-rule="evenodd" d="M96.1981 57.9518C92.8627 77.4674 77.4648 92.8645 57.9498 96.2L32.7152 70.9654C26.6768 65.982 22.8281 58.4404 22.8281 49.9998C22.8281 34.9941 34.9922 22.8301 49.9979 22.8301C58.4385 22.8301 65.9801 26.6789 70.9635 32.7172L96.1981 57.9518Z" fill="#009700"/>
<path fill-rule="evenodd" clip-rule="evenodd" d="M37.2803 51.6131L45.0182 58.7189C46.1469 59.758 47.8939 59.7027 48.9555 58.6082L62.76 45.3912C63.8828 44.3115 63.9168 42.5252 62.8367 41.4018C61.7566 40.2801 59.9713 40.2449 58.8484 41.3246L46.891 52.7732L41.1029 47.4582C39.9562 46.4031 38.1697 46.4771 37.1141 47.625C36.0586 48.7717 36.133 50.557 37.2803 51.6131ZM49.9979 22.8301C65.0035 22.8301 77.1676 34.9941 77.1676 49.9998C77.1676 65.0055 65.0035 77.1695 49.9979 77.1695C34.9922 77.1695 22.8281 65.0055 22.8281 49.9998C22.8281 34.9941 34.9922 22.8301 49.9979 22.8301Z" fill="white"/>
</g>
<defs>
<clipPath id="clip0_289_17176">
<rect width="100" height="100" fill="white"/>
</clipPath>
</defs>
</svg>
